<svg width="174" height="167" viewBox="0 0 174 167" fill="none" xmlns="http://www.w3.org/2000/svg">
<path d="M145.488 152.327C151.041 149.319 156.615 146.102 160.902 141.464C165.189 136.826 168.07 130.5 167.186 124.247C166.372 118.497 162.556 113.538 161.542 107.82C159.804 98.0067 166.522 88.7935 168.09 78.9516C169.269 71.5506 167.365 63.7067 162.923 57.6705C158.873 52.1682 152.913 48.2206 149.258 42.4487C144.332 34.6708 144.078 24.3407 138.063 17.371C133.706 12.3226 127.089 9.95017 120.766 7.83414C109.559 4.08414 98.1207 0.467141 86.3106 0.0384083C74.5005 -0.390324 62.0923 2.74059 53.5647 10.9228C50.9142 13.466 48.6551 16.5081 47.5122 19.9991C44.8098 28.2538 48.6787 37.0123 51.1043 45.3525C51.5788 46.984 52.0016 48.7057 51.6432 50.3665C51.2901 52.0026 50.219 53.3845 49.0901 54.6201C43.8301 60.3775 36.8295 64.1788 30.0742 68.075C23.3189 71.9711 16.4926 76.2321 11.9394 82.5632C7.38611 88.8942 5.59922 97.8215 9.5566 104.541C11.0919 107.148 13.434 109.393 14.056 112.354C15.1555 117.588 10.5936 122.062 7.9109 126.689C3.45668 134.371 4.27881 144.771 9.88461 151.658C15.4904 158.545 25.508 161.46 33.9338 158.657L145.488 152.327Z" fill="#F0FAFF"/>
<path d="M23.5194 151.343C24.3597 136.218 13.1559 115.815 1.67188 114.812C-2.52951 123.613 4.71862 146.898 15.4159 151.158C26.1133 155.419 23.5194 151.343 23.5194 151.343Z" fill="#2A94F4"/>
<path d="M16.8867 147.819C16.832 146.683 16.6136 145.482 16.3505 144.3C16.0838 143.113 15.7621 141.929 15.4141 140.751C14.7168 138.394 13.9098 136.06 13.0379 133.749C12.1637 131.439 11.2217 129.152 10.1906 126.905C9.67226 125.783 9.13124 124.671 8.54477 123.583C8.24679 123.042 7.9456 122.501 7.61196 121.981C7.28058 121.461 6.93441 120.944 6.49652 120.504C6.96027 120.918 7.33937 121.417 7.70256 121.92C8.06865 122.423 8.40277 122.947 8.73415 123.473C9.38729 124.53 9.99593 125.614 10.5826 126.71C11.7502 128.904 12.8313 131.144 13.8471 133.416C14.8611 135.688 15.8123 137.99 16.6616 140.342C17.0857 141.518 17.4852 142.706 17.8342 143.92C18.1786 145.137 18.4883 146.367 18.6332 147.703L16.8867 147.819Z" fill="#CCE9FF"/>
<path d="M28.9988 148.282C28.9988 148.282 28.7818 148.88 27.8451 149.068C27.656 149.106 27.4373 149.127 27.1851 149.122C26.1487 149.106 24.5434 148.663 22.0803 147.214C16.0599 143.667 15.9461 129.237 19.2811 124.349C26.0752 126.014 30.9034 139.289 28.9988 148.282Z" fill="#0E538C"/>
<path d="M27.8451 149.067C27.656 149.106 27.4372 149.127 27.1851 149.122C27.1815 149.081 27.1764 149.043 27.1728 149.003C26.9523 146.986 26.6214 144.975 26.2188 142.979C25.8179 140.981 25.3418 138.998 24.7746 137.041C24.4893 136.062 24.1794 135.089 23.8222 134.135C23.7293 133.898 23.6418 133.659 23.542 133.424L23.3951 133.07L23.2375 132.724C23.0187 132.265 22.7911 131.805 22.4847 131.395C22.805 131.794 23.0502 132.246 23.2865 132.699L23.458 133.042L23.6174 133.391C23.726 133.623 23.8222 133.86 23.9237 134.094C24.3158 135.04 24.6625 136.004 24.9828 136.974C25.6218 138.919 26.1715 140.892 26.6476 142.884C27.1237 144.876 27.5264 146.886 27.8241 148.92L27.8451 149.067Z" fill="#0E538C"/>
<path d="M56.6262 148.386C56.6262 148.386 56.4359 148.91 55.615 149.075C55.4493 149.108 55.2575 149.127 55.0366 149.122C54.1282 149.108 52.7212 148.72 50.5625 147.45C45.2858 144.341 45.186 131.693 48.1089 127.409C54.0638 128.868 58.2955 140.504 56.6262 148.386Z" fill="#51AEF4"/>
<path opacity="0.5" d="M55.615 149.074C55.4493 149.108 55.2575 149.127 55.0366 149.122C55.0335 149.087 55.0289 149.053 55.0258 149.018C54.8326 147.25 54.5425 145.487 54.1896 143.738C53.8383 141.987 53.4208 140.249 52.9238 138.533C52.6737 137.676 52.402 136.823 52.0891 135.986C52.0078 135.779 51.9311 135.569 51.8437 135.363L51.7148 135.053L51.5767 134.75C51.3849 134.347 51.1854 133.944 50.917 133.585C51.1978 133.935 51.4125 134.331 51.6198 134.728L51.7701 135.029L51.9097 135.334C52.0048 135.538 52.0893 135.745 52.1783 135.951C52.522 136.779 52.8258 137.625 53.1066 138.475C53.6665 140.18 54.1485 141.909 54.5658 143.655C54.9831 145.401 55.336 147.163 55.5969 148.945L55.615 149.074Z" fill="#51AEF4"/>
<path d="M149.643 151.343C148.803 136.218 160.007 115.815 171.491 114.812C175.692 123.613 168.444 146.898 157.747 151.158C147.05 155.419 149.643 151.343 149.643 151.343Z" fill="#0E538C"/>
<path d="M156.276 147.819C156.331 146.683 156.549 145.482 156.812 144.3C157.079 143.113 157.401 141.929 157.749 140.751C158.446 138.394 159.253 136.06 160.125 133.749C160.999 131.439 161.941 129.152 162.972 126.905C163.491 125.783 164.032 124.671 164.618 123.583C164.916 123.042 165.217 122.501 165.551 121.981C165.882 121.461 166.228 120.944 166.666 120.504C166.203 120.918 165.823 121.417 165.46 121.92C165.094 122.423 164.76 122.947 164.429 123.473C163.776 124.53 163.167 125.614 162.58 126.71C161.413 128.904 160.332 131.144 159.316 133.416C158.302 135.688 157.351 137.99 156.501 140.342C156.077 141.518 155.678 142.706 155.329 143.92C154.984 145.137 154.675 146.367 154.53 147.703L156.276 147.819ZM127.359 151.907C127.929 141.637 120.322 127.783 112.524 127.103C109.671 133.078 114.593 148.889 121.856 151.782C129.12 154.675 127.359 151.907 127.359 151.907Z" fill="#0E538C"/>
<path d="M122.855 149.515C122.818 148.743 122.67 147.928 122.491 147.125C122.31 146.319 122.092 145.515 121.855 144.715C121.382 143.115 120.834 141.529 120.242 139.961C119.648 138.392 119.009 136.839 118.308 135.313C117.956 134.551 117.589 133.796 117.191 133.057C116.988 132.69 116.784 132.323 116.557 131.97C116.332 131.617 116.097 131.266 115.8 130.967C116.115 131.248 116.372 131.587 116.619 131.928C116.868 132.27 117.094 132.626 117.319 132.983C117.763 133.701 118.176 134.437 118.575 135.181C119.367 136.671 120.102 138.192 120.791 139.734C121.48 141.277 122.126 142.84 122.702 144.437C122.99 145.236 123.262 146.043 123.499 146.867C123.733 147.693 123.943 148.529 124.041 149.436L122.855 149.515Z" fill="#0E538C"/>
<path d="M124.102 148.515C124.359 143.572 128.714 137.335 132.48 137.412C133.537 140.418 130.366 147.729 126.742 148.739C123.117 149.748 124.102 148.515 124.102 148.515Z" fill="#51AEF4"/>
<path d="M126.381 147.602C126.438 147.235 126.551 146.853 126.678 146.478C126.806 146.101 126.952 145.728 127.107 145.357C127.416 144.616 127.759 143.886 128.124 143.166C128.489 142.446 128.875 141.736 129.289 141.042C129.496 140.696 129.711 140.353 129.94 140.02C130.055 139.855 130.172 139.69 130.299 139.533C130.425 139.375 130.555 139.22 130.713 139.092C130.548 139.21 130.407 139.359 130.271 139.51C130.135 139.66 130.008 139.819 129.882 139.978C129.634 140.3 129.396 140.629 129.168 140.965C128.713 141.638 128.281 142.327 127.873 143.029C127.464 143.732 127.074 144.447 126.716 145.181C126.537 145.548 126.365 145.92 126.209 146.302C126.055 146.686 125.911 147.075 125.817 147.504L126.381 147.602Z" fill="#2797E2"/>
<path d="M52.7625 148.515C53.0192 143.572 57.3738 137.335 61.1399 137.412C62.1967 140.418 59.0262 147.729 55.4017 148.739C51.777 149.748 52.7625 148.515 52.7625 148.515Z" fill="#0E538C"/>
<path d="M55.0408 147.602C55.0983 147.235 55.2114 146.853 55.3383 146.478C55.4664 146.101 55.6125 145.728 55.7667 145.357C56.0757 144.616 56.4196 143.886 56.784 143.166C57.1489 142.446 57.5351 141.736 57.9487 141.042C58.1564 140.696 58.3712 140.353 58.5998 140.02C58.7156 139.855 58.8324 139.69 58.959 139.533C59.0849 139.375 59.2153 139.22 59.3731 139.092C59.2079 139.21 59.0672 139.359 58.9316 139.51C58.7951 139.66 58.6682 139.819 58.5421 139.978C58.2941 140.3 58.056 140.629 57.8282 140.965C57.373 141.638 56.9409 142.327 56.5327 143.029C56.1238 143.732 55.7341 144.447 55.3757 145.181C55.1967 145.548 55.0253 145.92 54.8694 146.302C54.7148 146.686 54.5711 147.075 54.4773 147.504L55.0408 147.602Z" fill="#0E538C"/>
<path d="M144.164 148.282C144.164 148.282 144.381 148.88 145.318 149.068C145.507 149.106 145.726 149.127 145.978 149.122C147.014 149.106 148.619 148.663 151.083 147.214C157.103 143.667 157.217 129.237 153.882 124.349C147.088 126.014 142.259 139.289 144.164 148.282Z" fill="#2A94F4"/>
<path d="M145.318 149.067C145.507 149.106 145.726 149.127 145.978 149.122C145.981 149.081 145.986 149.043 145.99 149.003C146.211 146.986 146.541 144.975 146.944 142.979C147.345 140.981 147.821 138.998 148.388 137.041C148.674 136.062 148.983 135.089 149.341 134.135C149.433 133.898 149.521 133.659 149.621 133.424L149.768 133.07L149.925 132.724C150.144 132.265 150.372 131.805 150.678 131.395C150.358 131.794 150.113 132.246 149.876 132.699L149.705 133.042L149.545 133.391C149.437 133.623 149.341 133.86 149.239 134.094C148.847 135.04 148.5 136.004 148.18 136.974C147.541 138.919 146.991 140.892 146.515 142.884C146.039 144.876 145.636 146.886 145.339 148.92L145.318 149.067Z" fill="#2A94F4"/>
<path d="M171.32 166.094H2.16486C0.974245 166.094 0 165.119 0 163.929V148.827C0 147.636 0.974245 146.662 2.16486 146.662H171.32C172.51 146.662 173.485 147.636 173.485 148.827V163.929C173.485 165.119 172.51 166.094 171.32 166.094Z" fill="#F2F2F2"/>
<path d="M90.329 157.342C119.986 157.342 144.027 156.323 144.027 155.065C144.027 153.808 119.986 152.789 90.329 152.789C60.6725 152.789 36.6311 153.808 36.6311 155.065C36.6311 156.323 60.6725 157.342 90.329 157.342Z" fill="#F2F2F2"/>
<path d="M71.8232 41.5644L93.2212 27.6763L95.5027 21.0854L95.3617 28.4373L77.2569 44.1927L71.8232 41.5644Z" fill="#DF9481"/>
<path d="M63.6789 46.4507L77.2269 38.0547L79.9675 48.1038L64.6658 58.1529L63.6789 46.4507Z" fill="#FFBE55"/>
<path opacity="0.2" d="M63.6789 46.4507L77.2269 38.0547L79.9675 48.1038L64.6658 58.1529L63.6789 46.4507Z" fill="#FFBE55"/>
<path d="M36.0905 109.117L30.4013 120.477L29.5965 109.292L32.281 108.043L29.3393 107.6L29.3493 106.005L36.0636 105.855L36.0905 109.117Z" fill="#FFBE55"/>
<path d="M57.76 73.708C57.76 73.708 64.2676 98.3682 62.3838 101.622C60.5001 104.876 35.7308 110.232 35.7308 110.232L35.6686 105.389C35.6686 105.389 52.98 97.3683 55.0351 97.882C50.9252 94.1145 46.8577 74.9067 46.8577 74.9067L57.76 73.708Z" fill="#093C59"/>
<path d="M32.0611 129.215L36.9367 140.947L27.9474 134.243L28.7578 131.395L26.4988 133.331L25.2982 132.28L29.5756 127.103L32.0611 129.215Z" fill="#FFBE55"/>
<path d="M56.5332 73.9288C56.5332 73.9288 42.0851 108.205 33.4384 131.395C28.1291 131.395 28.7832 126.234 28.7832 126.234C28.7832 126.234 39.2644 77.6121 45.2328 70.4434C54.4125 71.0679 56.5332 73.9288 56.5332 73.9288Z" fill="#0B4870"/>
<path d="M46.8576 58.1528L29.3899 74.3051L19.9615 76.0031L29.316 76.6214L47.9035 64.0974L46.8576 58.1528Z" fill="#DF9481"/>
<path d="M62.5881 42.4193C66.5686 42.4193 69.7955 39.0119 69.7955 34.8088C69.7955 30.6056 66.5686 27.1982 62.5881 27.1982C58.6076 27.1982 55.3808 30.6056 55.3808 34.8088C55.3808 39.0119 58.6076 42.4193 62.5881 42.4193Z" fill="#0B4870"/>
<path d="M69.396 29.7199C69.396 29.7199 71.3286 41.7787 69.0866 44.1928C62.2854 43.7291 60.5852 41.1585 58.8849 37.6031C57.1844 34.048 61.0488 26.783 69.396 29.7199Z" fill="#DF9481"/>
<path d="M71.0982 29.7094C70.7517 32.3518 60.505 39.0946 58.2586 37.9178C57.9376 33.1039 60.6236 24.3466 71.0982 29.7094Z" fill="#0B4870"/>
<path d="M59.9226 38.1783C59.0666 37.3046 58.2403 37.2031 58.1036 38.323C57.9799 39.336 59.3075 40.8239 60.2704 40.5891C61.2332 40.3544 59.9226 38.1783 59.9226 38.1783Z" fill="#DF9481"/>
<path d="M60.2768 28.4169C57.95 25.2147 53.8697 23.3764 49.9295 23.7551C48.5945 23.8835 47.2445 24.2685 46.2056 25.1168C45.1667 25.9651 44.4939 27.3376 44.73 28.6578C45.1184 30.8296 47.7301 32.3409 47.4834 34.5334C47.3751 35.4943 46.6953 36.3159 45.8788 36.8341C45.0623 37.3523 44.1141 37.615 43.1815 37.8707C41.0862 38.4453 38.9255 39.052 37.2334 40.4146C35.5412 41.7773 34.4319 44.1121 35.1549 46.161C35.6248 47.4927 36.8173 48.699 36.5293 50.0814C36.2324 51.5063 34.5411 52.1599 33.8114 53.4191C33.0964 54.6524 33.4699 56.3099 34.4186 57.3739C35.3673 58.4379 36.7733 58.9896 38.175 59.2496C40.4348 59.669 43.1665 59.1916 44.2857 57.184C45.0651 55.7857 44.8333 54.0318 44.2683 52.5338C43.7034 51.0359 42.8351 49.6604 42.3473 48.1357C41.8596 46.6109 41.8156 44.8073 42.7993 43.5444C43.8317 42.2191 45.6472 41.8644 47.2871 41.4996C48.927 41.1348 50.744 40.5064 51.4263 38.9712C52.0432 37.5838 51.5502 35.7826 52.5069 34.6037C53.3674 33.543 54.9423 33.5313 56.2394 33.1039C58.025 32.5155 59.4497 30.9409 59.8572 29.1057L60.2768 28.4169Z" fill="#0B4870"/>
<path d="M64.6658 42.0982L64.3306 46.1548L67.0811 52.7794L60.6236 46.3364L60.2768 40.1216L64.6658 42.0982Z" fill="#DF9481"/>
<path d="M68.3213 60.4252L63.6777 65.1573L59.3588 76.6211L46.9284 72.2136L42.7227 70.7207L46.8571 67.1051C46.8571 67.1051 42.5825 62.6509 41.7486 59.3896C49.5403 52.7881 55.5219 47.4879 60.623 46.3369H61.983L67.0816 52.7783L68.3213 60.4252Z" fill="#FFBE55"/>
<path opacity="0.5" d="M55.035 59.894L46.9284 72.2139L42.7225 70.7209L46.8571 67.1054L55.035 59.894Z" fill="#FFBE55"/>
<path d="M144.975 109.126L154.052 121.115L150.681 102.351L143.685 103.655L144.975 109.126Z" fill="#FFBE55"/>
<path d="M123.045 78.4044C120.368 86.3727 117.155 97.6744 121.266 104.096C125.378 110.517 145.739 109.509 145.739 109.509L144.935 103.584C144.935 103.584 130.828 100.706 131.441 98.8711C132.054 97.0365 135.591 83.7988 135.056 82.0181C134.521 80.2373 133.789 74.8735 133.789 74.8735L123.045 78.4044Z" fill="#B1D9F2"/>
<path d="M148.057 132.487L137.496 143.192L155.582 137.161L153.286 130.424L148.057 132.487Z" fill="#FFBE55"/>
<path d="M124.056 76.8989C124.199 79.738 147.065 132.892 147.065 132.892L153.771 131.284C153.771 131.284 141.629 82.4707 140.385 76.0771C139.141 69.6837 124.056 76.8989 124.056 76.8989Z" fill="#CCE9FF"/>
<path d="M149.207 60.2875L151.11 62.6667L155.699 78.6681L156.941 85.413L153.651 84.4591L152.984 80.117L152.129 81.83L151.191 82.0035L152.353 78.3208L147.078 65.2118L143.745 62.9801L149.207 60.2875ZM120.294 40.451L98.2248 27.6562L95.5027 21.0854L95.3617 28.4373L114.999 43.349L120.294 40.451Z" fill="#FFE3CA"/>
<path d="M128.008 44.6594L117.546 37.0752L112.022 43.0373L124.563 53.9008L128.008 44.6594Z" fill="#0B3E5B"/>
<path d="M128.008 44.659C127.588 45.0326 123.554 48.1043 121.696 51.6095C119.838 55.1148 121.827 79.8571 121.827 79.8571L143.437 78.7696L139.123 60.4916L143.429 65.1418L150.918 58.8496C150.918 58.8496 142.951 47.9774 141.261 46.8464C138.092 44.7258 128.008 44.659 128.008 44.659ZM128.555 27.4448C130.282 27.573 138.781 28.932 131.749 39.2172C130.272 41.9265 128.555 27.4448 128.555 27.4448Z" fill="#0B4870"/>
<path d="M121.168 29.8591C121.168 29.8591 120.091 40.6759 122.451 42.9742C124.143 42.7729 126.766 42.7185 127.889 42.2997C131.257 41.0436 130.751 38.7054 132.064 37.1111C134.57 34.0693 129.357 26.5063 121.168 29.8591Z" fill="#FFE3CA"/>
<path d="M127.469 40.6248L127.822 44.8148L127.096 47.2091C126.769 48.1248 127.939 48.8257 128.592 48.1051L132.159 44.8476L131.889 37.1201L127.469 40.6248Z" fill="#FFE3CA"/>
<path d="M124.98 32.8524C124.162 32.8084 123.358 32.9981 122.554 33.1546C121.751 33.311 120.856 33.3575 120.175 32.9033C119.241 32.2806 119.063 30.9849 118.37 30.1014C117.877 29.4725 117.147 29.0835 116.535 28.5694C116.445 28.4938 116.355 28.4115 116.31 28.3031C116.207 28.058 116.367 27.7862 116.536 27.5811C117.137 26.8516 117.958 26.2921 118.875 26.0648C119.793 25.8375 120.804 25.9574 121.61 26.4503C122.346 26.8998 122.921 27.6474 123.757 27.8581C125.018 28.1762 126.202 27.1512 127.482 26.9159C127.928 26.8342 128.387 26.8501 128.826 26.9626C129.105 27.0341 129.377 27.1465 129.601 27.3277C130.214 27.8252 130.352 28.7363 130.942 29.2619C131.556 29.8094 132.52 29.8156 133.129 30.3689C133.554 30.7547 133.73 31.337 133.881 31.8905C134.071 32.5829 134.238 33.3737 133.85 33.9775C133.68 34.2408 133.248 36.582 132.981 36.7451C131.444 37.683 129.842 35.8209 128.378 35.0958C127.848 34.8335 127.423 34.4077 127.092 33.9179C126.817 33.5112 126.209 32.9188 124.98 32.8524Z" fill="#0B4870"/>
<path d="M130.212 33.8743L130.252 37.79L131.033 37.7508L132.302 33.769L130.212 33.8743Z" fill="#0B4870"/>
<path d="M131.284 34.3645C132.817 33.1991 133.307 33.613 133.177 35.3591C133.047 37.1054 131.033 37.7508 131.033 37.7508L131.284 34.3645Z" fill="#FFE3CA"/>
<path d="M124.528 63.4986C125.757 63.4367 126.645 61.2427 126.512 58.5983C126.379 55.9538 125.274 53.8602 124.046 53.9221C122.817 53.984 121.929 56.1779 122.062 58.8224C122.195 61.4669 123.299 63.5604 124.528 63.4986Z" fill="#FFBE55"/>
<path d="M92.8217 22.6256L89.263 18.8964M97.6648 22.6256L101.224 18.8964M99.2105 16.9183L99.4442 16.6733M97.6648 18.538L98.8023 17.3459M94.0666 18.538L92.9292 17.3459" stroke="#FFBE55" stroke-width="2" stroke-miterlimit="10" stroke-linecap="round"/>
<path d="M89.9187 13.514C86.463 13.514 83.6638 16.315 83.6638 19.7707C83.6638 16.315 80.8628 13.514 77.4071 13.514C80.8628 13.514 83.6638 10.713 83.6638 7.25732C83.6638 10.713 86.463 13.514 89.9187 13.514ZM103.804 39.0584C102.073 39.0584 100.671 40.4612 100.671 42.192C100.671 40.4612 99.2684 39.0584 97.5376 39.0584C99.2684 39.0584 100.671 37.6555 100.671 35.9247C100.671 37.6554 102.073 39.0584 103.804 39.0584Z" fill="#FFBE55"/>
</svg>
