<svg width="69" height="69" viewBox="0 0 69 69" fill="none" xmlns="http://www.w3.org/2000/svg">
<mask id="mask0_22_542" style="mask-type:luminance" maskUnits="userSpaceOnUse" x="0" y="0" width="69" height="69">
<path d="M0 68.1492V0H68.52V68.1492H0Z" fill="white"/>
</mask>
<g mask="url(#mask0_22_542)">
<path fill-rule="evenodd" clip-rule="evenodd" d="M68.52 33.8566C68.52 52.7955 53.1668 68.1487 34.2278 68.1487C15.2889 68.1487 -0.0643005 52.7955 -0.0643005 33.8566C-0.0643005 14.9177 15.2889 -0.435547 34.2278 -0.435547C53.1668 -0.435547 68.52 14.9177 68.52 33.8566Z" fill="#DEDECA"/>
</g>
<path fill-rule="evenodd" clip-rule="evenodd" d="M20.9943 57.825C20.1552 57.825 19.2282 57.5368 18.3881 57.076L18.2852 57.0235C17.3979 56.5176 16.6199 55.8157 16.172 55.0409L10.2126 44.719C9.61252 43.6785 9.41962 42.191 9.63502 40.8633C9.73575 41.4913 9.92865 42.0839 10.2126 42.5757L16.172 52.8977C16.5878 53.6178 17.2897 54.2758 18.0988 54.7709C18.1566 54.8105 18.2188 54.847 18.2852 54.8802C19.1511 55.3742 20.1209 55.6818 20.9943 55.6818H28.335L31.9635 49.4856L32.6236 50.5026L28.335 57.825H20.9943ZM24.7975 41.7506H23.5608L25.9495 37.613C26.0492 37.4394 26.1317 37.2605 26.196 37.0783C26.3514 37.5159 26.4099 37.982 26.3673 38.4444C26.3247 38.9068 26.1822 39.3544 25.9495 39.7563L24.7975 41.7506ZM47.4603 57.825H40.1164C39.268 57.8245 38.4542 57.4884 37.8525 56.8902C37.2508 56.2919 36.9102 55.48 36.9048 54.6316V54.5887L36.9026 47.1152V47.1023L36.9037 47.0562L36.9048 52.4444V52.4883C36.9099 53.3369 37.2505 54.1489 37.8522 54.7472C38.4539 55.3455 39.2679 55.6815 40.1164 55.6818H47.4603C49.2285 55.6818 51.3986 54.429 52.2827 52.8977L58.2431 42.5757C58.526 42.0839 58.7189 41.4913 58.8196 40.8633C58.8743 41.2008 58.9021 41.5491 58.9032 41.8974C58.9096 42.9187 58.6899 43.9431 58.242 44.719L52.2827 55.0409C51.3986 56.5723 49.2285 57.825 47.4603 57.825ZM44.8948 41.7506H43.6571L42.5062 39.7563L43.087 38.6182L44.8948 41.7506ZM39.3985 31.1607C38.8337 31.1613 38.2788 31.013 37.7897 30.7308C37.3005 30.4486 36.8944 30.0425 36.6122 29.5533L34.2236 25.4157L34.2225 25.4168L31.8349 29.9605H23.9691L19.7255 22.6113L20.347 21.5439L23.9691 27.8173H31.8349L34.2225 23.2725L36.6122 27.41C37.0376 28.1477 37.7384 28.6862 38.5606 28.9075C39.3828 29.1287 40.2593 29.0145 40.9973 28.5899L41.0091 28.5835L47.5182 24.8231C48.173 24.4399 48.6708 23.8369 48.9231 23.1214C49.1721 23.8257 49.1681 24.5947 48.9117 25.2964C48.6553 25.9981 48.1626 26.5885 47.5182 26.9664L41.0091 30.7257L40.9973 30.7332C40.4926 31.0225 39.9418 31.1607 39.3985 31.1607Z" fill="#B3B2A4"/>
<path fill-rule="evenodd" clip-rule="evenodd" d="M23.5608 41.7505L18.2038 51.0287C18.2038 51.0287 17.384 52.4111 17.4611 53.577C17.4965 54.1064 17.7173 54.5908 18.2852 54.8801C19.1511 55.3741 20.1209 55.6817 20.9943 55.6817H28.335L32.6236 48.3592L28.3382 41.7505H23.5608Z" fill="#4C5665"/>
<path fill-rule="evenodd" clip-rule="evenodd" d="M17.4611 53.577C17.384 52.411 18.2038 51.0286 18.2038 51.0286L25.9495 37.6129C26.375 36.8754 26.4906 35.9993 26.271 35.1766C26.0514 34.354 25.5146 33.652 24.7782 33.2246L24.7664 33.2181L18.2938 29.4835L18.2563 29.4621C17.5188 29.0424 16.6453 28.9314 15.8263 29.1535C15.0074 29.3755 14.3095 29.9126 13.8851 30.6473H13.884L10.2126 37.0064C9.32854 38.5377 9.32854 41.0443 10.2126 42.5756L16.172 52.8976C16.6199 53.6723 17.3979 54.3743 18.2852 54.8801C17.7173 54.5907 17.4965 54.1064 17.4611 53.577Z" fill="#73BBA3"/>
<path fill-rule="evenodd" clip-rule="evenodd" d="M18.3881 54.9326L18.2852 54.8801C18.2228 54.8447 18.161 54.8083 18.0998 54.7708C17.6712 54.4782 17.4944 54.0496 17.4622 53.5856L17.4611 53.577C17.4577 53.5242 17.456 53.4713 17.4558 53.4184C17.4558 52.305 18.1834 51.0619 18.2038 51.0297L23.5609 41.7505H26.0288L18.3881 54.9326Z" fill="#414A55"/>
<path fill-rule="evenodd" clip-rule="evenodd" d="M18.2852 54.8801C18.2209 54.8483 18.1589 54.8117 18.0998 54.7708C18.1609 54.8084 18.2231 54.8448 18.2852 54.8801Z" fill="#629986"/>
<path fill-rule="evenodd" clip-rule="evenodd" d="M44.8948 41.7507H55.6079C55.6079 41.7507 57.2154 41.77 58.1863 41.1195C58.6278 40.8237 58.9364 40.3908 58.9032 39.7542C58.8978 38.7576 58.6792 37.7632 58.2431 37.0066L54.5727 30.5972H46.0865L42.5062 37.6131L44.8948 41.7507Z" fill="#4C5665"/>
<path fill-rule="evenodd" clip-rule="evenodd" d="M58.1863 41.1192C57.2154 41.7696 55.6079 41.7504 55.6079 41.7504H40.1175C39.266 41.7503 38.4492 42.0882 37.8465 42.6897C37.2438 43.2912 36.9043 44.1073 36.9026 44.9588V44.9717L36.9048 52.4441V52.4881C36.9099 53.3366 37.2505 54.1487 37.8522 54.747C38.4539 55.3453 39.2679 55.6813 40.1165 55.6815H47.4603C49.2285 55.6815 51.3986 54.4288 52.2827 52.8974L58.2431 42.5755C58.6899 41.7996 58.9096 40.7752 58.9032 39.7539C58.9364 40.3905 58.6278 40.8234 58.1863 41.1192Z" fill="#73BBA3"/>
<path fill-rule="evenodd" clip-rule="evenodd" d="M55.6219 41.7507H44.8948L43.6603 39.6128L58.8968 39.6385L58.9032 39.7542C58.9043 39.826 58.9032 39.8978 58.901 39.9696C58.8625 40.4905 58.5753 40.858 58.1863 41.1195C57.2689 41.7335 55.7815 41.7507 55.6219 41.7507Z" fill="#414A55"/>
<path fill-rule="evenodd" clip-rule="evenodd" d="M34.2236 23.2727L28.8665 13.9945C28.8665 13.9945 28.0788 12.5928 27.0308 12.0774C26.555 11.8438 26.0245 11.7923 25.4898 12.1395C24.6293 12.6421 23.8781 13.329 23.4408 14.0856L19.7255 20.4682L23.9691 27.8175H31.8349L34.2236 23.2727Z" fill="#4C5665"/>
<path fill-rule="evenodd" clip-rule="evenodd" d="M27.0308 12.0772C28.0788 12.5927 28.8665 13.9944 28.8665 13.9944L36.6122 27.4101C37.038 28.1473 37.7388 28.6855 38.5608 28.9067C39.3829 29.1279 40.2591 29.014 40.9973 28.59L41.0091 28.5835L47.5182 24.8232C48.25 24.3939 48.7824 23.6927 48.9994 22.8725C49.2164 22.0523 49.1004 21.1795 48.6766 20.4445L45.0052 14.0855C44.1211 12.5541 41.9511 11.3003 40.1829 11.3003H28.2642C27.3683 11.3003 26.3717 11.6229 25.4898 12.1394C26.0245 11.7922 26.555 11.8436 27.0308 12.0772Z" fill="#73BBA3"/>
<path fill-rule="evenodd" clip-rule="evenodd" d="M27.0179 12.0709L27.0029 12.0645C27.0077 12.0664 27.0134 12.0685 27.0179 12.0709Z" fill="#B3B2A4"/>
<path fill-rule="evenodd" clip-rule="evenodd" d="M32.9891 25.4103L25.3933 12.2025L25.4898 12.1392L25.4919 12.1371C25.5528 12.1018 25.6142 12.0675 25.6763 12.0342C25.8831 11.9335 26.0878 11.8906 26.2892 11.8906C26.5423 11.8944 26.7912 11.956 27.0169 12.0707L27.0308 12.0771C27.1969 12.1585 27.3566 12.2625 27.5077 12.3793C28.3082 13.0019 28.8665 13.9942 28.8665 13.9942L34.2236 23.2724L32.9891 25.4103Z" fill="#414A55"/>
<path fill-rule="evenodd" clip-rule="evenodd" d="M27.5077 12.3795C27.3555 12.26 27.1914 12.1566 27.0179 12.0709L27.0029 12.0645L27.0308 12.0773C27.1969 12.1588 27.3566 12.2627 27.5077 12.3795Z" fill="#629986"/>
</svg>
